<svg xmlns="http://www.w3.org/2000/svg" width="100" height="76" viewBox="0 0 100 76"><defs><style>.a{fill:#fff;opacity:0;}.a,.b{fill-rule:evenodd;}.b{fill:#23282c;}</style></defs><path class="a" d="M100,76H0V0H100Z"/><path class="b" d="M85.714,40.286H97.143A2.857,2.857,0,0,1,100,43.143v2.571a2.857,2.857,0,0,1-2.857,2.857H71.429a2.857,2.857,0,0,1-2.857-2.857V26.935a2.857,2.857,0,0,1,1.579-2.555l12.059-6.03a11.429,11.429,0,0,1,5.111-1.207h9.821A2.857,2.857,0,0,1,100,20v3.429a2.857,2.857,0,0,1-2.857,2.857H85.714a1.429,1.429,0,0,0,0,2.857H97.143A2.857,2.857,0,0,1,100,32v2.571a2.857,2.857,0,0,1-2.857,2.857H85.714a1.429,1.429,0,0,0,0,2.857Zm-5.226-24.27-13.194,6.6a2.857,2.857,0,0,0-1.579,2.555V45.714a2.857,2.857,0,0,1-2.857,2.857H54.286a2.857,2.857,0,0,1-2.857-2.857V19.246A4.286,4.286,0,0,1,53.8,15.413L80.79,1.917a1.429,1.429,0,0,1,2.067,1.278v8.988A4.286,4.286,0,0,1,80.488,16.016ZM46.766,57.807h2.621V71.571H46.766Zm-1.052-9.235H20a2.857,2.857,0,0,1-2.857-2.857V35.5a2.857,2.857,0,0,1,1.579-2.556l10.639-5.319a1.429,1.429,0,0,1,2.067,1.278v8.234a1.429,1.429,0,0,0,2.857,0V20a2.857,2.857,0,0,1,2.857-2.857h8.571A2.857,2.857,0,0,1,48.571,20V45.714A2.857,2.857,0,0,1,45.714,48.571ZM29.06,24.587l-13.195,6.6a2.857,2.857,0,0,0-1.579,2.555V46.286A2.286,2.286,0,0,1,12,48.571H2.286A2.286,2.286,0,0,1,0,46.286v-44A2.286,2.286,0,0,1,2.286,0H29.143a2.286,2.286,0,0,1,2.286,2.286V20.754A4.286,4.286,0,0,1,29.06,24.587ZM17.143,11.429a1.429,1.429,0,0,0-2.857,0v5.714a1.429,1.429,0,0,0,2.857,0ZM6.87,68.253l3.545-9.88H13.47l-5.148,13.2h-2.9L.29,58.373H3.344Zm9.87-10.2a1.482,1.482,0,1,1,0,2.96,1.481,1.481,0,1,1,0-2.96Zm1.32,13.519H15.439V62.521H18.06Zm5.152-7.693a3.784,3.784,0,0,1,3.658-1.546v2.545a3.1,3.1,0,0,0-3.356,1.377v5.317H20.893V62.521h2.319Zm9.645,7.957c-2.885,0-4.431-2.319-4.431-4.789s1.546-4.789,4.431-4.789a3.868,3.868,0,0,1,3.281,1.584v-1.32h2.3v8.805c0,3.451-2.545,4.657-5.2,4.657a8.858,8.858,0,0,1-3.828-.849v-2.3a6.906,6.906,0,0,0,3.488.943c1.6,0,2.941-.547,2.941-2.338v-.83A3.894,3.894,0,0,1,32.857,71.835Zm2.979-5.864a2.583,2.583,0,0,0-2.357-1.509,2.592,2.592,0,0,0,0,5.167,2.6,2.6,0,0,0,2.357-1.452Zm6.749-7.919a1.481,1.481,0,1,1-1.527,1.471A1.4,1.4,0,0,1,42.586,58.052Zm1.32,13.519H41.285V62.521h2.621ZM68.7,62.8c0,3.413-2.508,4.431-5.695,4.431H60.852v4.337H58.023v-13.2H63C66.188,58.373,68.7,59.391,68.7,62.8Zm-7.844,1.942h2.281c1.452,0,2.678-.4,2.678-1.942,0-1.565-1.226-1.942-2.678-1.942H60.852Zm12.5,3.036a1.587,1.587,0,0,0,1.735,1.791,2.577,2.577,0,0,0,2.036-1.15v-5.9H79.74v9.051H77.421v-1.15A3.945,3.945,0,0,1,74.4,71.835a3.433,3.433,0,0,1-3.677-3.715v-5.6h2.621Zm11.55-3.9a3.784,3.784,0,0,1,3.658-1.546v2.545A3.1,3.1,0,0,0,85.2,66.254v5.317H82.579V62.521H84.9Zm9.871-1.621c3.752,0,4.959,2.96,4.356,5.638H92.752c.3,1.32,1.7,1.867,3.187,1.867a6.792,6.792,0,0,0,2.734-.547V71.27a8.61,8.61,0,0,1-3.319.566c-2.866,0-5.242-1.641-5.242-4.789A4.559,4.559,0,0,1,94.769,62.257Zm2,3.941a1.745,1.745,0,0,0-1.9-1.942A1.994,1.994,0,0,0,92.733,66.2Z"/></svg>